<svg xmlns="http://www.w3.org/2000/svg" fill="none" viewBox="0 0 193.39 197.16">
<g clip-path="url(#clip0_30_163)">
<path d="M49.1161 24.7245L49.1366 2.89792C49.1929 1.75104 49.5821 0.931841 50.2989 0.455681C52.1011 -0.747519 53.8829 0.680962 55.1782 1.83296C58.9158 5.16608 71.2345 14.633 73.3235 16.4454C74.5625 17.4234 74.7725 19.2205 73.7946 20.4595C73.6563 20.6336 73.4976 20.7923 73.3235 20.9306C71.2909 22.6611 59.392 31.744 55.5264 35.2102C54.1645 36.4339 52.2342 38.2259 50.2784 36.9254C49.5616 36.4493 49.1725 35.6301 49.1161 34.4781V24.7245H39.5008H39.2192C32.5632 24.4173 28.8358 25.1904 27.1104 27.1565C25.2365 29.2864 24.6733 33.623 24.6733 40.0333V59.392H11.4944V40.0077C11.4944 30.4538 12.8102 23.4445 17.2237 18.432C21.7344 13.2813 28.6464 11.095 39.5008 11.5558V24.7245" fill="#0055B7"/>
<path d="M144.471 172.437L144.451 194.263C144.394 195.41 144.005 196.229 143.288 196.705C141.486 197.909 139.704 196.48 138.409 195.328C134.671 191.995 122.353 182.528 120.264 180.716C119.025 179.738 118.815 177.941 119.793 176.701C119.931 176.527 120.09 176.369 120.264 176.23C122.296 174.5 134.195 165.417 138.061 161.951C139.423 160.727 141.353 158.935 143.309 160.236C144.026 160.712 144.415 161.531 144.471 162.683V172.437H154.086H154.368C161.024 172.744 164.751 171.971 166.477 170.004C168.351 167.875 168.914 163.538 168.914 157.128V137.769H182.093V157.153C182.093 166.707 180.777 173.716 176.364 178.729C171.853 183.88 164.941 186.066 154.086 185.605V172.437" fill="#0055B7"/>
<path d="M168.668 39.7248V40.0064H181.836C182.297 29.152 180.111 22.24 174.96 17.7293C169.948 13.3158 162.938 12 153.384 12H134V25.1789H153.359C159.769 25.1789 164.106 25.7421 166.236 27.616C168.202 29.3414 168.975 33.0688 168.668 39.7248Z" fill="#0055B7"/>
<path d="M192.936 50.8045C192.46 50.0877 191.641 49.6986 190.494 49.6422L169.144 49.6218C169.087 49.6269 169.031 49.632 168.975 49.632C168.913 49.632 168.857 49.6269 168.796 49.6218H168.668H158.914C157.762 49.6781 156.943 50.0672 156.467 50.784C155.166 52.7398 156.958 54.6701 158.182 56.032C161.648 59.8976 170.731 71.7965 172.461 73.8291C172.6 74.0032 172.758 74.1619 172.932 74.3002C174.172 75.2781 175.969 75.0682 176.947 73.8291C178.759 71.7402 188.226 59.4214 191.559 55.6838C192.711 54.3885 194.14 52.6067 192.936 50.8045Z" fill="#0055B7"/>
<path d="M24.7251 159.191V158.909H11.5565C11.0957 169.764 13.2819 176.676 18.4326 181.186C23.4451 185.6 30.4544 186.916 40.0083 186.916H59.3926V173.737H40.0339C33.6237 173.737 29.287 173.173 27.1571 171.3C25.191 169.574 24.4179 165.847 24.7251 159.191Z" fill="#0055B7"/>
<path d="M0.4563 148.111C0.93246 148.828 1.75165 149.217 2.89854 149.273L24.2489 149.294C24.3053 149.289 24.3616 149.284 24.4179 149.284C24.4793 149.284 24.5357 149.289 24.5971 149.294H24.7251H34.4787C35.6307 149.237 36.4499 148.848 36.9261 148.132C38.2265 146.176 36.4345 144.245 35.2109 142.884C31.7446 139.018 22.6617 127.119 20.9312 125.086C20.7929 124.912 20.6342 124.754 20.4601 124.615C19.2211 123.637 17.424 123.847 16.4461 125.086C14.6336 127.175 5.16669 139.494 1.83357 143.232C0.681574 144.527 -0.7469 146.309 0.4563 148.111Z" fill="#0055B7"/>
<path d="M108.831 59.9229V64.4387C108.943 65.007 110.351 65.8006 112.123 66.799C117.376 69.743 124.989 74.0234 121.687 86.1475C121.559 86.6032 121.185 86.9821 120.678 87.1818C120.243 87.4582 119.951 87.8679 119.874 88.3235C119.746 88.7792 119.711 89.2451 119.772 89.711C119.808 90.1155 119.936 90.5047 120.146 90.8682C120.269 91.0627 120.376 91.1907 120.458 91.2061C121.277 91.3648 121.856 91.9792 121.856 92.6858V119.566C121.856 120.19 121.405 120.748 120.719 120.989C120.473 121.107 120.279 121.291 120.156 121.506C119.859 122.034 119.721 122.617 119.741 123.196C119.736 123.846 119.89 124.486 120.192 125.08C120.315 125.392 120.555 125.664 120.878 125.858C121.487 126.114 121.876 126.636 121.887 127.21V143.845C121.897 143.952 121.897 144.065 121.887 144.172C121.482 147.004 119.199 149.395 115.999 150.342C114.806 150.69 113.541 150.834 112.281 150.757C111.032 150.695 109.814 150.409 108.708 149.912C107.796 149.487 106.998 148.914 106.363 148.222C105.257 149.205 103.869 149.938 102.333 150.352C99.717 151.069 96.8959 151.069 94.2796 150.352C92.7692 149.938 91.4021 149.211 90.3116 148.238C89.6716 148.903 88.8831 149.456 87.9871 149.861C86.8863 150.357 85.6677 150.644 84.4236 150.706C83.1794 150.772 81.9352 150.629 80.7576 150.281C77.5064 149.328 75.2076 146.876 74.8594 143.993C74.8543 143.927 74.8543 143.86 74.8594 143.788V127.241C74.8543 126.657 75.2434 126.124 75.8681 125.863C76.1548 125.664 76.3749 125.403 76.5029 125.111C76.805 124.517 76.9586 123.872 76.9535 123.227C76.974 122.643 76.8306 122.064 76.5388 121.537C76.4108 121.307 76.1906 121.117 75.9244 120.994C75.1769 120.8 74.6597 120.221 74.6546 119.566V92.6858C74.6495 91.9792 75.2281 91.3597 76.0421 91.1958C76.1599 91.1037 76.2521 90.9911 76.3135 90.8682C76.5183 90.5047 76.6514 90.1104 76.6975 89.711C76.7487 89.2451 76.718 88.7792 76.5951 88.3235C76.5081 87.8525 76.1957 87.4327 75.7298 87.1562C75.2639 86.9463 74.926 86.5725 74.8031 86.1424C71.5007 74.0182 79.1141 69.7379 84.3673 66.7837C86.1695 65.7699 87.598 64.9661 87.6594 64.408V59.9229C87.1013 59.8512 86.5791 59.6311 86.1797 59.2983C86.1797 59.2471 86.0671 59.1958 86.0313 59.1446C85.6268 58.7453 85.4066 58.2384 85.4066 57.7162V51.2343C85.4066 50.6967 85.5346 50.1642 85.7804 49.6675C86.0108 49.176 86.3538 48.7306 86.789 48.3466L86.9017 48.2442C87.8489 47.4455 89.134 47 90.4754 47H106.04C106.701 47 107.351 47.1126 107.965 47.3226C108.575 47.5376 109.133 47.8499 109.599 48.2442L109.721 48.3517C110.592 49.1299 111.078 50.159 111.078 51.2291V57.711C111.073 58.305 110.786 58.8682 110.285 59.2829C109.89 59.6157 109.378 59.8359 108.825 59.9075L108.831 59.9229ZM118.236 117.682H78.3001V118.741C78.8223 119.115 79.2524 119.576 79.5698 120.088C80.1433 121.071 80.43 122.151 80.4044 123.242C80.3993 124.312 80.1433 125.367 79.6517 126.355C79.3343 126.974 78.8786 127.532 78.3052 128.004V143.788C78.5407 145.483 79.8924 146.922 81.797 147.5C82.5138 147.71 83.2767 147.797 84.0345 147.756C84.7666 147.721 85.4834 147.552 86.1285 147.26C87.5417 146.594 88.3506 145.289 88.1919 143.937C88.1663 143.097 88.9599 142.396 89.9583 142.375C90.9567 142.355 91.7913 143.021 91.8169 143.86V144.039C91.9653 145.729 93.3785 147.147 95.3292 147.577C96.2559 147.838 97.2287 147.966 98.2066 147.956C99.1897 147.961 100.162 147.828 101.094 147.567C103.055 146.999 104.596 145.816 104.699 144.029V143.86C104.668 143.021 105.457 142.319 106.46 142.293C107.458 142.268 108.293 142.928 108.324 143.773C108.324 143.84 108.324 143.906 108.313 143.973C108.16 145.33 108.974 146.63 110.387 147.296C111.022 147.588 111.729 147.756 112.45 147.792C113.224 147.833 114.002 147.746 114.734 147.536C116.633 146.948 117.98 145.514 118.216 143.824V128.004C117.637 127.538 117.181 126.974 116.869 126.355C116.372 125.372 116.116 124.312 116.116 123.242C116.086 122.151 116.367 121.066 116.941 120.088C117.263 119.576 117.698 119.12 118.221 118.741V117.682H118.236ZM78.2949 94.5955H118.231V93.5971C117.698 93.2387 117.263 92.7882 116.961 92.2762C116.536 91.5696 116.275 90.8067 116.188 90.0183C116.091 89.2144 116.152 88.4003 116.367 87.617C116.649 86.552 117.34 85.5946 118.328 84.8931C120.683 75.247 114.463 71.7552 110.141 69.3335C107.505 67.8435 105.41 66.671 105.236 64.623C105.231 64.5565 105.231 64.4899 105.236 64.4183V59.9536H91.3253V64.4183C91.2741 66.5738 89.1289 67.8026 86.4204 69.2976C82.0991 71.7245 75.8783 75.2214 78.2233 84.8624C79.2114 85.5741 79.8821 86.5418 80.1381 87.6118C80.3634 88.4003 80.4249 89.2144 80.3276 90.0234C80.2405 90.8118 79.9794 91.5747 79.5545 92.2813C79.2473 92.7933 78.8172 93.2439 78.2847 93.6023V94.6006V94.5955H78.2949Z" fill="#0055B7"/>
</g>
<defs>
<clipPath id="clip0_30_163">
<rect width="193.101" height="197.161" fill="white"/>
</clipPath>
</defs>
</svg>